<?xml version="1.0" encoding="UTF-8" standalone="no"?>
<svg
   xmlns:dc="http://purl.org/dc/elements/1.1/"
   xmlns:cc="http://creativecommons.org/ns#"
   xmlns:rdf="http://www.w3.org/1999/02/22-rdf-syntax-ns#"
   xmlns:svg="http://www.w3.org/2000/svg"
   xmlns="http://www.w3.org/2000/svg"
   viewBox="0 0 304.04001 303.85501"
   height="303.85501"
   width="304.04001"
   xml:space="preserve"
   version="1.1"
   id="svg2"><metadata
     id="metadata8"><rdf:RDF><cc:Work
         rdf:about=""><dc:format>image/svg+xml</dc:format><dc:type
           rdf:resource="http://purl.org/dc/dcmitype/StillImage" /></cc:Work></rdf:RDF></metadata><defs
     id="defs6" /><g
     transform="matrix(1.25,0,0,-1.25,144.945,31.3825)"
     id="g10"><g
       id="g12"><g
         id="g14"><g
           id="g16"><g
             id="g18"><path
               id="path20"
               style="fill:#ccccff;fill-opacity:1;fill-rule:nonzero;stroke:#000000;stroke-width:0.3985;stroke-linecap:butt;stroke-linejoin:miter;stroke-miterlimit:10;stroke-dasharray:none;stroke-opacity:1"
               d="m 24.2424,19.92555 -48.4848,0 c -2.20094,0 -3.98511,-1.78416 -3.98511,-3.98511 l 0,-31.88088 c 0,-2.20095 1.78417,-3.98511 3.98511,-3.98511 l 48.4848,0 c 2.20094,0 3.98511,1.78416 3.98511,3.98511 l 0,31.88088 c 0,2.20095 -1.78417,3.98511 -3.98511,3.98511 z" /></g><g
             transform="translate(-24.906,3.487)"
             id="g22"><g
               transform="translate(12.453,0)"
               id="g24"><g
                 transform="translate(-103.503,-221.465)"
                 id="g26"><text
                   id="text28"
                   style="font-variant:normal;font-weight:normal;font-size:9.96259975px;font-family:CMR10;-inkscape-font-specification:CMR10;writing-mode:lr-tb;fill:#000000;fill-opacity:1;fill-rule:nonzero;stroke:none"
                   transform="matrix(1,0,0,-1,103.503,221.465)"><tspan
                     id="tspan30"
                     y="0"
                     x="0 7.1949897 9.9625998 14.389979 19.371279">Clean</tspan><tspan
                     id="tspan32"
                     y="11.955"
                     x="-9.8240004 0.41556028 3.1831706 8.441431 11.209042 17.023214 21.450594 26.985815 29.753426">Wikipedia</tspan></text>
<g
                   transform="translate(91.05,221.465)"
                   id="g34" /></g></g><g
               transform="translate(24.906,-3.487)"
               id="g36" /></g></g><g
           id="g38"><g
             id="g40"><g
               id="g42"><g
                 transform="translate(4.2895,4.2895)"
                 id="g44"><path
                   id="path46"
                   style="fill:#ccccff;fill-opacity:1;fill-rule:nonzero;stroke:#000000;stroke-width:0.3985;stroke-linecap:butt;stroke-linejoin:miter;stroke-miterlimit:10;stroke-dasharray:none;stroke-opacity:1"
                   d="m -110.77728,0 0,13.7261 51.47366,0 0,-27.4522 0,-2.4907 c -7.10713,3.32096 -18.62974,3.32096 -25.73686,0 -7.10712,-3.32093 -18.62973,-3.32093 -25.73686,0 l 6e-5,16.2168 z" /></g></g></g><g
             id="g48"><g
               id="g50"><g
                 transform="translate(2.14474,2.14474)"
                 id="g52"><path
                   id="path54"
                   style="fill:#ccccff;fill-opacity:1;fill-rule:nonzero;stroke:#000000;stroke-width:0.3985;stroke-linecap:butt;stroke-linejoin:miter;stroke-miterlimit:10;stroke-dasharray:none;stroke-opacity:1"
                   d="m -110.77728,0 0,13.7261 51.47366,0 0,-27.4522 0,-2.4907 c -7.10713,3.32096 -18.62974,3.32096 -25.73686,0 -7.10712,-3.32093 -18.62973,-3.32093 -25.73686,0 l 6e-5,16.2168 z" /></g></g></g><g
             id="g56"><path
               id="path58"
               style="fill:#ccccff;fill-opacity:1;fill-rule:nonzero;stroke:#000000;stroke-width:0.3985;stroke-linecap:butt;stroke-linejoin:miter;stroke-miterlimit:10;stroke-dasharray:none;stroke-opacity:1"
               d="m -110.77728,0 0,13.7261 51.47366,0 0,-27.4522 0,-2.4907 c -7.10713,3.32096 -18.62974,3.32096 -25.73686,0 -7.10712,-3.32093 -18.62973,-3.32093 -25.73686,0 l 6e-5,16.2168 z" /></g><g
             transform="translate(-107.455,3.487)"
             id="g60"><g
               transform="translate(0.138,0)"
               id="g62"><g
                 transform="translate(-8.639,-221.465)"
                 id="g64"><text
                   id="text66"
                   style="font-variant:normal;font-weight:normal;font-size:9.96259975px;font-family:CMR10;-inkscape-font-specification:CMR10;writing-mode:lr-tb;fill:#000000;fill-opacity:1;fill-rule:nonzero;stroke:none"
                   transform="matrix(1,0,0,-1,8.639,221.465)"><tspan
                     id="tspan68"
                     y="0"
                     x="0 10.23956 13.007171 18.26543 21.033041 26.847214 31.274593 36.809814 39.577423">Wikipedia</tspan><tspan
                     id="tspan70"
                     y="11.955"
                     x="8.7869997 16.39743 21.932652 30.234486">Dump</tspan></text>
<g
                   transform="translate(8.501,221.465)"
                   id="g72" /></g></g><g
               transform="translate(107.455,-3.487)"
               id="g74" /></g></g><g
           id="g76"><g
             id="g78"><path
               id="path80"
               style="fill:#ccccff;fill-opacity:1;fill-rule:nonzero;stroke:#000000;stroke-width:0.3985;stroke-linecap:butt;stroke-linejoin:miter;stroke-miterlimit:10;stroke-dasharray:none;stroke-opacity:1"
               d="m 24.2424,-36.76807 -48.4848,0 c -2.20094,0 -3.98511,-1.78416 -3.98511,-3.9851 l 0,-31.88093 c 0,-2.20094 1.78417,-3.9851 3.98511,-3.9851 l 48.4848,0 c 2.20094,0 3.98511,1.78416 3.98511,3.9851 l 0,31.88093 c 0,2.20094 -1.78417,3.9851 -3.98511,3.9851 z" /></g><g
             transform="translate(-24.906,-53.15)"
             id="g82"><g
               transform="translate(13.034,0)"
               id="g84"><g
                 transform="translate(-104.084,-164.828)"
                 id="g86"><text
                   id="text88"
                   style="font-variant:normal;font-weight:normal;font-size:9.96259975px;font-family:CMR10;-inkscape-font-specification:CMR10;writing-mode:lr-tb;fill:#000000;fill-opacity:1;fill-rule:nonzero;stroke:none"
                   transform="matrix(1,0,0,-1,104.084,164.828)"><tspan
                     id="tspan90"
                     y="0"
                     x="0 6.5015926 11.482893 15.385243 19.314493">Parse</tspan><tspan
                     id="tspan92"
                     y="11.956"
                     x="-10.405 -0.16543972 2.6021705 7.8604307 10.628041 16.442215 20.869595 26.404814 29.172424">Wikipedia</tspan></text>
<g
                   transform="translate(91.05,164.828)"
                   id="g94" /></g></g><g
               transform="translate(24.906,53.15)"
               id="g96" /></g></g><g
           id="g98"><path
             id="path100"
             style="fill:none;stroke:#000000;stroke-width:0.3985;stroke-linecap:butt;stroke-linejoin:miter;stroke-miterlimit:10;stroke-dasharray:none;stroke-opacity:1"
             d="m 48.06781,-36.09526 73.94527,0 0,15.49692 -73.94527,0 0,-15.49692 z" /><g
             transform="translate(51.388,-30.837)"
             id="g102"><g
               id="g104"><g
                 transform="translate(-167.344,-187.141)"
                 id="g106"><text
                   id="text108"
                   style="font-variant:normal;font-weight:normal;font-size:9.96259975px;font-family:CMR10;-inkscape-font-specification:CMR10;writing-mode:lr-tb;fill:#000000;fill-opacity:1;fill-rule:nonzero;stroke:none"
                   transform="matrix(1,0,0,-1,167.344,187.141)"><tspan
                     id="tspan110"
                     y="0"
                     x="0 3.5974948 9.1327152 13.560095 18.816362 22.690817 25.458427 28.502998 37.078804 43.446899 48.4282 53.407505 57.834885 63.370106">IdentifyTokens</tspan></text>
<g
                   transform="translate(167.344,187.141)"
                   id="g112" /></g></g><g
               transform="translate(-51.388,30.837)"
               id="g114" /></g></g><g
           id="g116"><path
             id="path118"
             style="fill:none;stroke:#000000;stroke-width:0.3985;stroke-linecap:butt;stroke-linejoin:miter;stroke-miterlimit:10;stroke-dasharray:none;stroke-opacity:1"
             d="m 48.49266,-64.3867 44.74878,0 0,15.38618 -44.74878,0 0,-15.38618 z" /><g
             transform="translate(51.813,-59.128)"
             id="g120"><g
               id="g122"><g
                 transform="translate(-167.769,-158.85)"
                 id="g124"><text
                   id="text126"
                   style="font-variant:normal;font-weight:normal;font-size:9.96259975px;font-family:CMR10;-inkscape-font-specification:CMR10;writing-mode:lr-tb;fill:#000000;fill-opacity:1;fill-rule:nonzero;stroke:none"
                   transform="matrix(1,0,0,-1,167.769,158.85)"><tspan
                     id="tspan128"
                     y="0"
                     x="0 6.5015926 11.482893 20.335659 24.210114 29.191414 34.172714">PoStags</tspan></text>
<g
                   transform="translate(167.769,158.85)"
                   id="g130" /></g></g><g
               transform="translate(-51.813,59.128)"
               id="g132" /></g></g><g
           id="g134"><path
             id="path136"
             style="fill:none;stroke:#000000;stroke-width:0.3985;stroke-linecap:butt;stroke-linejoin:miter;stroke-miterlimit:10;stroke-dasharray:none;stroke-opacity:1"
             d="m 47.98479,-92.73352 74.11131,0 0,15.38618 -74.11131,0 0,-15.38618 z" /><g
             transform="translate(51.305,-87.474)"
             id="g138"><g
               id="g140"><g
                 transform="translate(-167.261,-130.504)"
                 id="g142"><text
                   id="text144"
                   style="font-variant:normal;font-weight:normal;font-size:9.96259975px;font-family:CMR10;-inkscape-font-specification:CMR10;writing-mode:lr-tb;fill:#000000;fill-opacity:1;fill-rule:nonzero;stroke:none"
                   transform="matrix(1,0,0,-1,167.261,130.504)"><tspan
                     id="tspan146"
                     y="0"
                     x="0 5.5352206 10.793481 16.049749 19.924204 24.905504 29.332884 33.207336 35.974949 43.729836 50.23143 55.21273 59.115078 63.044331">SyntacticParse</tspan></text>
<g
                   transform="translate(167.261,130.504)"
                   id="g148" /></g></g><g
               transform="translate(-51.305,87.474)"
               id="g150" /></g></g><g
           id="g152"><g
             id="g154"><path
               id="path156"
               style="fill:#ccccff;fill-opacity:1;fill-rule:nonzero;stroke:#000000;stroke-width:0.3985;stroke-linecap:butt;stroke-linejoin:miter;stroke-miterlimit:10;stroke-dasharray:none;stroke-opacity:1"
               d="m 24.2424,-93.4617 -48.4848,0 c -2.20094,0 -3.98511,-1.78416 -3.98511,-3.98511 l 0,-31.88092 c 0,-2.20094 1.78417,-3.98511 3.98511,-3.98511 l 48.4848,0 c 2.20094,0 3.98511,1.78417 3.98511,3.98511 l 0,31.88092 c 0,2.20095 -1.78417,3.98511 -3.98511,3.98511 z" /></g><g
             transform="translate(-24.906,-104.834)"
             id="g158"><g
               transform="translate(13.546,0)"
               id="g160"><g
                 transform="translate(-104.596,-113.144)"
                 id="g162"><text
                   id="text164"
                   style="font-variant:normal;font-weight:normal;font-size:9.96259975px;font-family:CMR10;-inkscape-font-specification:CMR10;writing-mode:lr-tb;fill:#000000;fill-opacity:1;fill-rule:nonzero;stroke:none"
                   transform="matrix(1,0,0,-1,104.596,113.144)"><tspan
                     id="tspan166"
                     y="0"
                     x="0 5.5352206 9.4096756 14.390976 18.293325">Store</tspan><tspan
                     id="tspan168"
                     y="11.955"
                     x="-10.917 -0.67743975 2.0901706 7.3484306 10.116041 15.930215 20.357594 25.892815 28.660425">Wikipedia</tspan><tspan
                     id="tspan170"
                     y="23.910999"
                     x="-0.51200002 5.9895926 10.970893 14.873243 18.802492">Parse</tspan></text>
<g
                   transform="translate(91.05,113.144)"
                   id="g172" /></g></g><g
               transform="translate(24.906,104.834)"
               id="g174" /></g></g><g
           id="g176"><g
             id="g178"><g
               id="g180"><g
                 transform="translate(-4.2895,4.2895)"
                 id="g182"><path
                   id="path184"
                   style="fill:#ccccff;fill-opacity:1;fill-rule:nonzero;stroke:#000000;stroke-width:0.79701;stroke-linecap:butt;stroke-linejoin:miter;stroke-miterlimit:10;stroke-dasharray:none;stroke-opacity:1"
                   d="m -25.73682,-212.60112 51.47365,0 0,56.69362 -51.47365,0 0,-56.69362 z" /></g></g></g><g
             id="g186"><g
               id="g188"><g
                 transform="translate(-2.14474,2.14474)"
                 id="g190"><path
                   id="path192"
                   style="fill:#ccccff;fill-opacity:1;fill-rule:nonzero;stroke:#000000;stroke-width:0.79701;stroke-linecap:butt;stroke-linejoin:miter;stroke-miterlimit:10;stroke-dasharray:none;stroke-opacity:1"
                   d="m -25.73682,-212.60112 51.47365,0 0,56.69362 -51.47365,0 0,-56.69362 z" /></g></g></g><g
             id="g194"><path
               id="path196"
               style="fill:#ccccff;fill-opacity:1;fill-rule:nonzero;stroke:#000000;stroke-width:0.79701;stroke-linecap:butt;stroke-linejoin:miter;stroke-miterlimit:10;stroke-dasharray:none;stroke-opacity:1"
               d="m -25.73682,-212.60112 51.47365,0 0,56.69362 -51.47365,0 0,-56.69362 z" /></g><g
             transform="translate(-22.416,-187.656)"
             id="g198"><g
               transform="translate(3.598,0)"
               id="g200"><g
                 transform="translate(-97.138,-30.322)"
                 id="g202"><text
                   id="text204"
                   style="font-variant:normal;font-weight:normal;font-size:9.96259975px;font-family:CMR10;-inkscape-font-specification:CMR10;writing-mode:lr-tb;fill:#000000;fill-opacity:1;fill-rule:nonzero;stroke:none"
                   transform="matrix(1,0,0,-1,97.138,30.322)"><tspan
                     id="tspan206"
                     y="0"
                     x="0 5.5352206 13.007171 19.787716 30.027277">SAEWD</tspan></text>
<g
                   transform="translate(93.54,30.322)"
                   id="g208" /></g></g><g
               transform="translate(22.416,187.656)"
               id="g210" /></g></g><path
           id="path212"
           style="fill:none;stroke:#000000;stroke-width:0.3985;stroke-linecap:butt;stroke-linejoin:miter;stroke-miterlimit:10;stroke-dasharray:none;stroke-opacity:1"
           d="M 0,-20.12482 0,-34.17778" /><g
           transform="matrix(0,-1,1,0,0,-34.17778)"
           id="g214"><g
             id="g216"><path
               id="path218"
               style="fill:#000000;fill-opacity:1;fill-rule:nonzero;stroke:none"
               d="m 2.39102,0 c -0.99626,0.19925 -2.78952,0.59775 -3.98503,1.49438 0.99626,-1.09588 0.99626,-1.89288 0,-2.98876 C -0.3985,-0.59775 1.39476,-0.19925 2.39102,0" /></g></g><g
           id="g220"><path
             id="path222"
             style="fill:none;stroke:#000000;stroke-width:0.3985;stroke-linecap:butt;stroke-linejoin:miter;stroke-miterlimit:10;stroke-dasharray:2.98883, 2.98883;stroke-dashoffset:0;stroke-opacity:1"
             d="m 28.42676,-39.87206 17.38249,10.30443" /><g
             transform="matrix(0.86127,0.51059,-0.51059,0.86127,45.80925,-29.56763)"
             id="g224"><g
               id="g226"><path
                 id="path228"
                 style="fill:#000000;fill-opacity:1;fill-rule:nonzero;stroke:none"
                 d="m 2.39102,0 c -0.99626,0.19925 -2.78952,0.59775 -3.98503,1.49438 0.99626,-1.09588 0.99626,-1.89288 0,-2.98876 C -0.3985,-0.59775 1.39476,-0.19925 2.39102,0" /></g></g></g><g
           id="g230"><path
             id="path232"
             style="fill:none;stroke:#000000;stroke-width:0.3985;stroke-linecap:butt;stroke-linejoin:miter;stroke-miterlimit:10;stroke-dasharray:2.98883, 2.98883;stroke-dashoffset:0;stroke-opacity:1"
             d="m 28.42676,-56.69363 17.47561,10e-6" /><g
             transform="translate(45.90237,-56.69362)"
             id="g234"><g
               id="g236"><path
                 id="path238"
                 style="fill:#000000;fill-opacity:1;fill-rule:nonzero;stroke:none"
                 d="m 2.39102,0 c -0.99626,0.19925 -2.78952,0.59775 -3.98503,1.49438 0.99626,-1.09588 0.99626,-1.89288 0,-2.98876 C -0.3985,-0.59775 1.39476,-0.19925 2.39102,0" /></g></g></g><g
           id="g240"><path
             id="path242"
             style="fill:none;stroke:#000000;stroke-width:0.3985;stroke-linecap:butt;stroke-linejoin:miter;stroke-miterlimit:10;stroke-dasharray:2.98883, 2.98883;stroke-dashoffset:0;stroke-opacity:1"
             d="M 28.42676,-73.55206 45.72624,-83.81828" /><g
             transform="matrix(0.86127,-0.51114,0.51114,0.86127,45.72624,-83.81828)"
             id="g244"><g
               id="g246"><path
                 id="path248"
                 style="fill:#000000;fill-opacity:1;fill-rule:nonzero;stroke:none"
                 d="m 2.39102,0 c -0.99626,0.19925 -2.78952,0.59775 -3.98503,1.49438 0.99626,-1.09588 0.99626,-1.89288 0,-2.98876 C -0.3985,-0.59775 1.39476,-0.19925 2.39102,0" /></g></g></g><path
           id="path250"
           style="fill:none;stroke:#000000;stroke-width:0.3985;stroke-linecap:butt;stroke-linejoin:miter;stroke-miterlimit:10;stroke-dasharray:none;stroke-opacity:1"
           d="M 0,-76.81845 0,-90.87141" /><g
           transform="matrix(0,-1,1,0,0,-90.87141)"
           id="g252"><g
             id="g254"><path
               id="path256"
               style="fill:#000000;fill-opacity:1;fill-rule:nonzero;stroke:none"
               d="m 2.39102,0 c -0.99626,0.19925 -2.78952,0.59775 -3.98503,1.49438 0.99626,-1.09588 0.99626,-1.89288 0,-2.98876 C -0.3985,-0.59775 1.39476,-0.19925 2.39102,0" /></g></g><path
           id="path258"
           style="fill:none;stroke:#000000;stroke-width:0.3985;stroke-linecap:butt;stroke-linejoin:miter;stroke-miterlimit:10;stroke-dasharray:none;stroke-opacity:1"
           d="m 0,-133.51208 0,-15.62078" /><g
           transform="matrix(0,-1,1,0,0,-149.13286)"
           id="g260"><g
             id="g262"><path
               id="path264"
               style="fill:#000000;fill-opacity:1;fill-rule:nonzero;stroke:none"
               d="m 2.39102,0 c -0.99626,0.19925 -2.78952,0.59775 -3.98503,1.49438 0.99626,-1.09588 0.99626,-1.89288 0,-2.98876 C -0.3985,-0.59775 1.39476,-0.19925 2.39102,0" /></g></g><path
           id="path266"
           style="fill:none;stroke:#000000;stroke-width:0.3985;stroke-linecap:butt;stroke-linejoin:miter;stroke-miterlimit:10;stroke-dasharray:none;stroke-opacity:1"
           d="M -55.1102,-6.3e-4 -30.8178,0" /><g
           transform="translate(-30.8178,0)"
           id="g268"><g
             id="g270"><path
               id="path272"
               style="fill:#000000;fill-opacity:1;fill-rule:nonzero;stroke:none"
               d="m 2.39102,0 c -0.99626,0.19925 -2.78952,0.59775 -3.98503,1.49438 0.99626,-1.09588 0.99626,-1.89288 0,-2.98876 C -0.3985,-0.59775 1.39476,-0.19925 2.39102,0" /></g></g></g></g></g></svg>